# xmcd
#
# Track frame offsets:
#	150
#	19806
#	39036
#	52440
#	67362
#	85121
#	108706
#	130328
#	143999
#	161379
#
# Disc length: 2632 seconds
# Revision: 0
# Processed by: cddbd v1.5.2PL0 Copyright (c) Steve Scherf et al.
# Submitted via: dBpowerAMP V12.0
#
DISCID=900a460a
DTITLE=Joanne Stacey - My September
DYEAR=2015
DGENRE=Country
TTITLE0=That's What Patsy Would Do
TTITLE1=The Man
TTITLE2=When The Honeymoon Is Over
TTITLE3=Let Love Do Ya
TTITLE4=The Scent Of A Good Man
TTITLE5=Karma's A Bitch
TTITLE6=I Can't Breathe
TTITLE7=He Loves Her Still
TTITLE8=Weeping Willow
TTITLE9=My September
EXTD=
EXTT0=
EXTT1=
EXTT2=
EXTT3=
EXTT4=
EXTT5=
EXTT6=
EXTT7=
EXTT8=
EXTT9=
PLAYORDER=
